<?xml version="1.0" encoding="utf-8"?>
<!-- Generator: Adobe Illustrator 23.0.0, SVG Export Plug-In . SVG Version: 6.00 Build 0)  -->
<svg version="1.1" id="Layer_1" xmlns="http://www.w3.org/2000/svg" xmlns:xlink="http://www.w3.org/1999/xlink" x="0px" y="0px"
	 viewBox="0 0 1366 768" style="enable-background:new 0 0 1366 768;" xml:space="preserve">
<style type="text/css">
	.st0{fill:#1C2329;}
	.st1{fill:#7ACCC2;}
	.st2{fill:#820F15;}
	.st3{fill:#FE1A27;}
	.st4{fill:#FF2D70;}
	.st5{fill:#FF6642;}
	.st6{fill:#262626;}
	.st7{fill:#000DF4;}
	.st8{fill:#0088FF;}
	.st9{fill:#08FDD8;}
	.st10{fill:#89123A;}
	.st11{fill:#ED1F64;}
	.st12{fill:#47F7D8;}
	.st13{fill:#F60053;}
</style>
<g>
	<line class="st0" x1="74.7" y1="768" x2="0" y2="768"/>
	<polyline class="st0" points="32.8,680.3 0,747.7 0,768 0,0 1366,0 1366,768 74.7,768 	"/>
</g>
<circle class="st1" cx="748.5" cy="384.5" r="295.5"/>
<polygon class="st2" points="652.7,228.8 556.2,228.8 507.9,312.4 556.2,396 652.7,396 701,312.4 "/>
<polygon class="st3" points="783.7,288.8 687.2,288.8 638.9,372.4 687.2,456 783.7,456 832,372.4 "/>
<polygon class="st4" points="669.7,372.8 573.2,372.8 524.9,456.4 573.2,540 669.7,540 718,456.4 "/>
<polygon class="st5" points="926.7,204.8 830.2,204.8 781.9,288.4 830.2,372 926.7,372 975,288.4 "/>
<circle class="st6" cx="730" cy="288" r="138"/>
<polyline class="st7" points="709,176 625,349 792,349 708,176 "/>
<polyline class="st8" points="726,176 642,349 809,349 725,176 "/>
<polyline class="st9" points="749,176 665,349 832,349 748,176 "/>
<polyline points="538,542 564,542 564,450 586,450 586,430 538,430 "/>
<polyline points="527,542 501,542 501,450 479,450 479,430 527,430 "/>
<polygon points="617,542 612,430 641,430 641,542 "/>
<polyline points="653,430 653,486 714,486 714,430 "/>
<polyline points="653,499 653,522 691,522 691,542 714,542 714,499 "/>
<rect x="673" y="445" class="st4" width="27" height="23"/>
<polygon points="732,430 732,542 797,542 797,521 757,521 757.5,430 "/>
<polyline points="767,430 797,430.4 797,458 767,458 "/>
<rect x="767" y="471" width="30" height="28"/>
<polyline points="822.3,430.4 822,542 849,542 849,430 "/>
<polygon points="858,430 858,448 881,448 881,542 902,542 902,444 880,430 "/>
<polyline points="969,541 995,541 995,449 1017,449 1017,429 969,429 "/>
<polyline points="958,541 932,541 932,449 910,449 910,429 958,429 "/>
<polyline class="st9" points="113.6,176.5 62.7,281.1 163.8,281.1 113,176.5 "/>
<polyline class="st9" points="214.6,176.5 163.7,281.1 264.8,281.1 214,176.5 "/>
<polyline class="st10" points="315.6,176.5 264.7,281.1 365.8,281.1 315,176.5 "/>
<polyline class="st11" points="163.6,281.4 112.7,386.1 213.8,386.1 163,281.4 "/>
<polyline class="st9" points="264.6,281.4 213.7,386.1 314.8,386.1 264,281.4 "/>
<polyline class="st11" points="163.6,71.5 112.7,176.1 213.8,176.1 163,71.5 "/>
<polyline class="st9" points="264.6,71.5 213.7,176.1 314.8,176.1 264,71.5 "/>
<polyline class="st12" points="1262.7,591.2 1211.8,695.8 1312.9,695.8 1262.1,591.2 "/>
<polyline class="st13" points="1313.7,486.1 1262.8,590.8 1363.9,590.8 1313.1,486.1 "/>
<polyline class="st9" points="1262.7,384.1 1211.8,488.9 1312.9,488.9 1262.1,384.1 "/>
<polyline class="st11" points="1109.7,486.1 1058.8,590.8 1159.9,590.8 1109.1,486.1 "/>
<polyline class="st9" points="1211.7,486.1 1160.8,590.8 1261.9,590.8 1211.1,486.1 "/>
<polyline class="st10" points="1059.7,591.2 1008.8,695.8 1109.9,695.8 1059.1,591.2 "/>
<polyline class="st9" points="1160.7,591.2 1109.8,695.8 1210.9,695.8 1160.1,591.2 "/>
<polyline class="st9" points="1161.8,-0.4 1136.3,52 1237.4,52 1212.2,0 "/>
<polyline class="st9" points="1262.8,-0.4 1237.3,52 1338.4,52 1313,-0.4 "/>
<polyline class="st11" points="1237.2,52.3 1186.3,157 1287.4,157 1236.6,52.3 "/>
<polyline class="st9" points="1337.6,52.3 1338.2,52.3 1287.3,157 1366,157 1366,52 "/>
<polyline class="st9" points="0,680 32.4,680 0,613.2 "/>
<polyline class="st9" points="83.2,575.3 32.3,680 133.4,680 82.6,575.3 "/>
<polygon class="st10" points="74.7,768 32.2,680.3 0,747.7 0,768 "/>
</svg>
