<?xml version="1.0" encoding="utf-8"?>
<!-- Generator: Adobe Illustrator 23.0.0, SVG Export Plug-In . SVG Version: 6.00 Build 0)  -->
<svg version="1.1" id="Layer_1" xmlns="http://www.w3.org/2000/svg" xmlns:xlink="http://www.w3.org/1999/xlink" x="0px" y="0px"
	 viewBox="0 0 493.7 341.7" style="enable-background:new 0 0 493.7 341.7;" xml:space="preserve">
<style type="text/css">
	.st1{fill:#383838;stroke:#000000;stroke-miterlimit:10;}
	.st2{fill:#282828;stroke:#000000;stroke-miterlimit:10;}
	.st3{fill:#7B4E9E;stroke:#000000;stroke-miterlimit:10;}
	.st4{fill:#262626;stroke:#000000;stroke-miterlimit:10;}
	.st5{fill:#292929;stroke:#000000;stroke-miterlimit:10;}
	.st6{fill:#FFFFFF;stroke:#000000;stroke-miterlimit:10;}
	.st7{fill:#242424;stroke:#000000;stroke-miterlimit:10;}
	.st8{fill:#8ACBFF;stroke:#000000;stroke-miterlimit:10;}
	.st9{fill:#FF3F7B;stroke:#000000;stroke-miterlimit:10;}
	.st10{fill:#D8FFB4;stroke:#000000;stroke-miterlimit:10;}
	.st11{fill:#252525;stroke:#000000;stroke-miterlimit:10;}
	.st12{fill:#FFFFFF;}
	.st13{fill:#D40005;stroke:#000000;stroke-miterlimit:10;}
	.st14{fill:#FF2AC0;stroke:#000000;stroke-miterlimit:10;}
	.st15{fill:#6ACEFF;stroke:#000000;stroke-miterlimit:10;}
	.st16{fill:#404040;stroke:#000000;stroke-miterlimit:10;}
</style>
<path class="st1" d="M473.3,260.1H20c-6.6,0-12-5.4-12-12V21.3c0-6.6,5.4-12,12-12h453.3c6.6,0,12,5.4,12,12v226.8
	C485.3,254.7,479.9,260.1,473.3,260.1z"/>
<rect x="35.8" y="29.9" class="st2" width="421.8" height="209.7"/>
<rect x="35.8" y="223" class="st3" width="421.8" height="16.5"/>
<rect x="35.8" y="29.9" class="st4" width="22.9" height="193.1"/>
<rect x="58.7" y="29.9" class="st2" width="54.7" height="193.1"/>
<rect x="124" y="37.3" class="st5" width="324" height="174.7"/>
<rect x="127.8" y="41.8" class="st6" width="3.3" height="5.1"/>
<rect x="127.8" y="48" class="st6" width="3.3" height="5.1"/>
<rect x="127.8" y="54.2" class="st6" width="3.3" height="5.1"/>
<rect x="127.8" y="60.4" class="st6" width="3.3" height="5.1"/>
<rect x="127.8" y="66.7" class="st6" width="3.3" height="5.1"/>
<rect x="127.8" y="72.9" class="st6" width="3.3" height="5.1"/>
<rect x="58.7" y="41.8" class="st7" width="54.7" height="11.3"/>
<path class="st8" d="M47.3,56.8L47.3,56.8c-3.4,0-6.2-2.8-6.2-6.2v0c0-3.4,2.8-6.2,6.2-6.2h0c3.4,0,6.2,2.8,6.2,6.2v0
	C53.5,54,50.7,56.8,47.3,56.8z"/>
<path class="st9" d="M47.2,81.7L47.2,81.7c-3.4,0-6.2-2.8-6.2-6.2v0c0-3.4,2.8-6.2,6.2-6.2h0c3.4,0,6.2,2.8,6.2,6.2v0
	C53.4,78.9,50.6,81.7,47.2,81.7z"/>
<path class="st10" d="M47.2,106.6L47.2,106.6c-3.4,0-6.2-2.8-6.2-6.2v0c0-3.4,2.8-6.2,6.2-6.2h0c3.4,0,6.2,2.8,6.2,6.2v0
	C53.4,103.8,50.6,106.6,47.2,106.6z"/>
<rect x="64.4" y="59.3" class="st10" width="37.3" height="7.3"/>
<rect x="127.8" y="79.1" class="st6" width="3.3" height="5.1"/>
<rect x="127.8" y="85.3" class="st6" width="3.3" height="5.1"/>
<rect x="127.8" y="91.6" class="st6" width="3.3" height="5.1"/>
<rect x="127.8" y="97.8" class="st6" width="3.3" height="5.1"/>
<rect x="127.8" y="104" class="st6" width="3.3" height="5.1"/>
<rect x="127.8" y="110.2" class="st6" width="3.3" height="5.1"/>
<rect x="127.8" y="116.4" class="st6" width="3.3" height="5.1"/>
<rect x="127.8" y="122.7" class="st6" width="3.3" height="5.1"/>
<rect x="127.8" y="128.9" class="st6" width="3.3" height="5.1"/>
<rect x="127.8" y="135.1" class="st6" width="3.3" height="5.1"/>
<rect x="127.8" y="141.7" class="st6" width="3.3" height="5.1"/>
<rect x="127.8" y="147.9" class="st6" width="3.3" height="5.1"/>
<rect x="127.8" y="154.2" class="st6" width="3.3" height="5.1"/>
<rect x="127.8" y="160.4" class="st6" width="3.3" height="5.1"/>
<rect x="127.8" y="166.6" class="st6" width="3.3" height="5.1"/>
<rect x="127.8" y="173" class="st6" width="3.3" height="5.1"/>
<rect x="127.8" y="179.3" class="st6" width="3.3" height="5.1"/>
<rect x="127.8" y="185.5" class="st6" width="3.3" height="5.1"/>
<rect x="127.8" y="191.7" class="st6" width="3.3" height="5.1"/>
<rect x="127.8" y="197.9" class="st6" width="3.3" height="5.1"/>
<rect x="127.8" y="204.2" class="st6" width="3.3" height="5.1"/>
<rect x="414.2" y="37.3" class="st11" width="33.8" height="63"/>
<path class="st12" d="M443.2,44.3h-23.7c-0.7,0-1.3-0.6-1.3-1.3v0c0-0.7,0.6-1.3,1.3-1.3h23.7c0.7,0,1.3,0.6,1.3,1.3v0
	C444.4,43.8,443.9,44.3,443.2,44.3z"/>
<path class="st12" d="M429.8,51.8h-12.3c-0.7,0-1.3-0.6-1.3-1.3l0,0c0-0.7,0.6-1.3,1.3-1.3h12.3c0.7,0,1.3,0.6,1.3,1.3l0,0
	C431.1,51.3,430.5,51.8,429.8,51.8z"/>
<path class="st12" d="M443.2,51.8h-8.8c-0.7,0-1.3-0.6-1.3-1.3l0,0c0-0.7,0.6-1.3,1.3-1.3h8.8c0.7,0,1.3,0.6,1.3,1.3l0,0
	C444.4,51.3,443.9,51.8,443.2,51.8z"/>
<path class="st12" d="M303.3,48H138c-1.4,0-2.5-1.1-2.5-2.5v0c0-1.4,1.1-2.5,2.5-2.5h165.3c1.4,0,2.5,1.1,2.5,2.5v0
	C305.8,46.9,304.7,48,303.3,48z"/>
<path class="st12" d="M260.2,65.5H138c-1.4,0-2.5-1.1-2.5-2.5v-0.1c0-1.4,1.1-2.5,2.5-2.5h122.2c1.4,0,2.5,1.1,2.5,2.5V63
	C262.7,64.4,261.6,65.5,260.2,65.5z"/>
<path class="st12" d="M315.3,80.5H138c-1.4,0-2.5-1.1-2.5-2.5l0,0c0-1.4,1.1-2.5,2.5-2.5h177.3c1.4,0,2.5,1.1,2.5,2.5l0,0
	C317.8,79.4,316.7,80.5,315.3,80.5z"/>
<path class="st12" d="M276.2,94H138c-1.4,0-2.5-1.1-2.5-2.5l0,0c0-1.4,1.1-2.5,2.5-2.5h138.2c1.4,0,2.5,1.1,2.5,2.5l0,0
	C278.7,92.9,277.6,94,276.2,94z"/>
<path class="st12" d="M249.1,107.6H138c-1.4,0-2.5-1.1-2.5-2.5v0c0-1.4,1.1-2.5,2.5-2.5h111.1c1.4,0,2.5,1.1,2.5,2.5v0
	C251.6,106.5,250.4,107.6,249.1,107.6z"/>
<path class="st12" d="M351.8,121.5H138c-1.4,0-2.5-1.1-2.5-2.5l0,0c0-1.4,1.1-2.5,2.5-2.5h213.7c1.4,0,2.5,1.1,2.5,2.5l0,0
	C354.2,120.4,353.1,121.5,351.8,121.5z"/>
<path class="st12" d="M174.4,133.9H138c-1.4,0-2.5-1.1-2.5-2.5v-0.1c0-1.4,1.1-2.5,2.5-2.5h36.4c1.4,0,2.5,1.1,2.5,2.5v0.1
	C176.9,132.8,175.8,133.9,174.4,133.9z"/>
<path class="st12" d="M303.3,144.2H138c-1.4,0-2.5-1.1-2.5-2.5v0c0-1.4,1.1-2.5,2.5-2.5h165.3c1.4,0,2.5,1.1,2.5,2.5v0
	C305.8,143.1,304.7,144.2,303.3,144.2z"/>
<path class="st12" d="M276.2,156.6H138c-1.4,0-2.5-1.1-2.5-2.5l0,0c0-1.4,1.1-2.5,2.5-2.5h138.2c1.4,0,2.5,1.1,2.5,2.5l0,0
	C278.7,155.5,277.6,156.6,276.2,156.6z"/>
<path class="st12" d="M303.3,169.1H138c-1.4,0-2.5-1.1-2.5-2.5l0,0c0-1.4,1.1-2.5,2.5-2.5h165.3c1.4,0,2.5,1.1,2.5,2.5l0,0
	C305.8,168,304.7,169.1,303.3,169.1z"/>
<path class="st12" d="M392.2,180.9H138c-1.4,0-2.5-1.1-2.5-2.5v0c0-1.4,1.1-2.5,2.5-2.5h254.2c1.4,0,2.5,1.1,2.5,2.5v0
	C394.7,179.8,393.6,180.9,392.2,180.9z"/>
<path class="st12" d="M309.1,192.4H138c-1.4,0-2.5-1.1-2.5-2.5v-0.2c0-1.4,1.1-2.5,2.5-2.5h171.1c1.4,0,2.5,1.1,2.5,2.5v0.2
	C311.6,191.3,310.4,192.4,309.1,192.4z"/>
<path class="st12" d="M280.6,203H138c-1.4,0-2.5-1.1-2.5-2.5v-0.1c0-1.4,1.1-2.5,2.5-2.5h142.6c1.4,0,2.5,1.1,2.5,2.5v0.1
	C283.1,201.9,282,203,280.6,203z"/>
<path class="st12" d="M443.2,58.1h-25.7c-0.7,0-1.3-0.6-1.3-1.3v0c0-0.7,0.6-1.3,1.3-1.3h25.7c0.7,0,1.3,0.6,1.3,1.3v0
	C444.4,57.5,443.9,58.1,443.2,58.1z"/>
<path class="st12" d="M428.1,64.3h-10.6c-0.7,0-1.3-0.6-1.3-1.3v-1.3c0-0.7,0.6-1.3,1.3-1.3h10.6c0.7,0,1.3,0.6,1.3,1.3V63
	C429.3,63.7,428.8,64.3,428.1,64.3z"/>
<path class="st12" d="M444.1,64.9h-10.6c-0.7,0-1.3-0.6-1.3-1.3v-1.3c0-0.7,0.6-1.3,1.3-1.3h10.6c0.7,0,1.3,0.6,1.3,1.3v1.3
	C445.3,64.3,444.8,64.9,444.1,64.9z"/>
<path class="st10" d="M75.2,69.2h24.8c1,0,1.8,0.8,1.8,1.8l0,0c0,1-0.8,1.8-1.8,1.8H75.2c-1,0-1.8-0.8-1.8-1.8l0,0
	C73.3,70,74.2,69.2,75.2,69.2z"/>
<path class="st10" d="M75.2,77.1h24.8c1,0,1.8,0.8,1.8,1.8v0c0,1-0.8,1.8-1.8,1.8H75.2c-1,0-1.8-0.8-1.8-1.8v0
	C73.3,77.9,74.2,77.1,75.2,77.1z"/>
<path class="st10" d="M75.2,84.9h24.8c1,0,1.8,0.8,1.8,1.8l0,0c0,1-0.8,1.8-1.8,1.8H75.2c-1,0-1.8-0.8-1.8-1.8l0,0
	C73.3,85.7,74.2,84.9,75.2,84.9z"/>
<path class="st10" d="M75.2,92.2h24.8c1,0,1.8,0.8,1.8,1.8l0,0c0,1-0.8,1.8-1.8,1.8H75.2c-1,0-1.8-0.8-1.8-1.8l0,0
	C73.3,93,74.2,92.2,75.2,92.2z"/>
<rect x="64.4" y="100.7" class="st9" width="37.3" height="7.3"/>
<path class="st9" d="M75.2,110.6h24.8c1,0,1.8,0.8,1.8,1.8v0c0,1-0.8,1.8-1.8,1.8H75.2c-1,0-1.8-0.8-1.8-1.8v0
	C73.3,111.4,74.2,110.6,75.2,110.6z"/>
<path class="st9" d="M75.2,118.5h24.8c1,0,1.8,0.8,1.8,1.8v0c0,1-0.8,1.8-1.8,1.8H75.2c-1,0-1.8-0.8-1.8-1.8v0
	C73.3,119.3,74.2,118.5,75.2,118.5z"/>
<path class="st9" d="M75.2,126.3h24.8c1,0,1.8,0.8,1.8,1.8l0,0c0,1-0.8,1.8-1.8,1.8H75.2c-1,0-1.8-0.8-1.8-1.8l0,0
	C73.3,127.1,74.2,126.3,75.2,126.3z"/>
<path class="st9" d="M75.2,133.6h24.8c1,0,1.8,0.8,1.8,1.8l0,0c0,1-0.8,1.8-1.8,1.8H75.2c-1,0-1.8-0.8-1.8-1.8l0,0
	C73.3,134.4,74.2,133.6,75.2,133.6z"/>
<rect x="64.4" y="142.1" class="st8" width="37.3" height="7.3"/>
<path class="st8" d="M75.2,152h24.8c1,0,1.8,0.8,1.8,1.8v0c0,1-0.8,1.8-1.8,1.8H75.2c-1,0-1.8-0.8-1.8-1.8v0
	C73.3,152.8,74.2,152,75.2,152z"/>
<path class="st8" d="M75.2,159.8h24.8c1,0,1.8,0.8,1.8,1.8l0,0c0,1-0.8,1.8-1.8,1.8H75.2c-1,0-1.8-0.8-1.8-1.8l0,0
	C73.3,160.7,74.2,159.8,75.2,159.8z"/>
<path class="st8" d="M75.2,167.7h24.8c1,0,1.8,0.8,1.8,1.8l0,0c0,1-0.8,1.8-1.8,1.8H75.2c-1,0-1.8-0.8-1.8-1.8l0,0
	C73.3,168.5,74.2,167.7,75.2,167.7z"/>
<path class="st8" d="M75.2,175h24.8c1,0,1.8,0.8,1.8,1.8l0,0c0,1-0.8,1.8-1.8,1.8H75.2c-1,0-1.8-0.8-1.8-1.8l0,0
	C73.3,175.8,74.2,175,75.2,175z"/>
<rect x="35.8" y="29.9" class="st2" width="421.8" height="7.5"/>
<path class="st13" d="M449.6,31.7h3.1c0.9,0,1.6,0.7,1.6,1.6v0c0,0.9-0.7,1.6-1.6,1.6h-3.1c-0.9,0-1.6-0.7-1.6-1.6v0
	C448,32.4,448.7,31.7,449.6,31.7z"/>
<path class="st14" d="M439.7,31.7h3.1c0.9,0,1.6,0.7,1.6,1.6v0c0,0.9-0.7,1.6-1.6,1.6h-3.1c-0.9,0-1.6-0.7-1.6-1.6v0
	C438.1,32.4,438.8,31.7,439.7,31.7z"/>
<path class="st15" d="M430.7,31.7h3.1c0.9,0,1.6,0.7,1.6,1.6v0c0,0.9-0.7,1.6-1.6,1.6h-3.1c-0.9,0-1.6-0.7-1.6-1.6v0
	C429,32.4,429.8,31.7,430.7,31.7z"/>
<polygon class="st16" points="280.3,260.1 246.7,260.1 245.3,260.1 211.7,260.1 207.1,311.1 245.3,311.1 246.7,311.1 284.9,311.1 
	"/>
<polyline class="st16" points="207.1,311.1 193.6,329.5 278.2,329.5 284.9,311.1 "/>
<polyline class="st16" points="193.6,329.5 193.6,332.2 278.7,332.2 278.2,329.5 "/>
<line class="st16" x1="278.7" y1="332.2" x2="286" y2="311.1"/>
</svg>
